<svg xmlns="http://www.w3.org/2000/svg" viewBox="0 0 202.67 198">
                <style>
                    .a {
                        fill: #195079;
                    }

                    .b {
                        fill: #FFF;
                    }

                    .c {
                        fill: #C8D400;
                    }

                </style>
                <path d="M102.07 16.45c-45.53 0-82.58 37.05-82.58 82.58 0 45.54 37.05 82.58 82.58 82.58 45.54 0 82.58-37.05 82.58-82.58C184.65 53.5 147.6 16.45 102.07 16.45" class="a"></path>
                <path d="M102.07 42c31.44 0 57.03 25.58 57.03 57.03 0 31.45-25.58 57.03-57.03 57.03s-57.03-25.58-57.03-57.03C45.04 67.59 70.62 42 102.07 42" class="b"></path>
                <path d="M102.07 179.65c-44.45 0-80.62-36.17-80.62-80.62h21.64c0 32.53 26.46 58.99 58.99 58.99s58.99-26.46 58.99-58.99h21.64C182.69 143.49 146.52 179.65 102.07 179.65" class="b"></path>
                <path d="M43.47 158.88c51.2-51.2 54.28-63.42 23.68-94.02 30.6 30.6 42.81 27.52 94.01-23.68 -51.2 51.2-54.28 63.42-23.67 94.02C106.89 104.6 94.67 107.68 43.47 158.88" class="c"></path>
                <path d="M91.43 68.99c0 5.77 4.68 10.45 10.46 10.45 5.77 0 10.45-4.68 10.45-10.45 0-5.77-4.68-10.45-10.45-10.45C96.11 58.54 91.43 63.22 91.43 68.99" class="c"></path>
                <path d="M106.23 93.83c0.29-0.95 0.71-1.67 1.24-2.15 0.53-0.48 1.19-0.72 1.96-0.72 0.83 0 1.54 0.28 2.12 0.82 0.58 0.55 0.87 1.22 0.87 2 0 0.53-0.17 1.15-0.5 1.88 -0.34 0.72-0.82 1.5-1.46 2.34l-0.46 0.6c-2.17 2.83-3.76 4.08-3.76 4.08s-1.63-1.28-3.79-4.1c-0.19-0.25-0.33-0.43-0.44-0.56 -0.64-0.83-1.12-1.61-1.46-2.34 -0.33-0.72-0.5-1.35-0.5-1.89 0-0.78 0.28-1.45 0.87-2 0.58-0.54 1.29-0.82 2.14-0.82 0.77 0 1.41 0.24 1.94 0.72C105.51 92.15 105.93 92.87 106.23 93.83" class="b"></path>
                <polygon points="34.87 85.97 39.67 87.16 39.17 89.16 27.79 86.34 28.28 84.35 33.01 85.51 34.36 80.08 29.63 78.91 30.12 76.91 41.5 79.73 41.01 81.73 36.21 80.54 " class="b"></polygon>
                <polygon points="38.28 62.92 35.34 68.87 38.08 70.22 40.68 64.95 42.33 65.77 39.73 71.04 42.55 72.43 45.53 66.41 47.18 67.23 43.29 75.1 32.78 69.9 36.63 62.1 " class="b"></polygon>
                <path d="M56.55 54.8l-1.37 1.69 -2.95-0.85 -3.48 4.31 1.44 2.72 -1.33 1.64 -5.94-11.43 1.2-1.48L56.55 54.8zM45.42 53.7l2.38 4.51 2.54-3.14L45.42 53.7z" class="b"></path>
                <polygon points="52.18 43.05 53.78 41.76 59.97 49.42 64.76 45.55 65.94 47.01 59.54 52.18 " class="b"></polygon>
                <polygon points="72.39 43.23 70.57 44.25 65.79 35.67 62.54 37.49 61.61 35.82 69.92 31.18 70.85 32.85 67.6 34.66 " class="b"></polygon>
                <polygon points="79.93 34.47 81.38 39.19 79.41 39.8 75.98 28.58 77.95 27.98 79.37 32.64 84.73 31 83.3 26.34 85.27 25.74 88.7 36.95 86.73 37.56 85.29 32.83 " class="b"></polygon>
                <polygon points="109.84 25.92 103.18 25.71 103.08 28.91 108.99 29.09 108.93 30.97 103.02 30.78 102.87 35.55 100.81 35.49 101.18 23.77 109.9 24.04 " class="b"></polygon>
                <path d="M118.95 37.83c-3.49-0.9-5.24-4.17-4.41-7.38 0.83-3.21 3.99-5.25 7.47-4.35 3.49 0.9 5.24 4.17 4.41 7.38C125.59 36.69 122.44 38.73 118.95 37.83M121.5 27.92c-2.25-0.58-4.29 0.81-4.87 3.04 -0.57 2.22 0.56 4.47 2.82 5.05 2.25 0.58 4.29-0.81 4.87-3.03C124.89 30.75 123.76 28.5 121.5 27.92" class="b"></path>
                <path d="M135.63 44.46l-0.63-4.96 -2.28-1.21 -1.91 3.61 -1.82-0.96 5.49-10.36 4.62 2.45c2.38 1.26 3.18 3.3 2.11 5.33 -0.91 1.72-2.48 2.21-4.14 1.84l0.72 5.4L135.63 44.46zM138.07 34.6l-2.65-1.4 -1.84 3.48 2.66 1.41c1.3 0.69 2.49 0.45 3.06-0.62C139.9 36.33 139.41 35.32 138.07 34.6" class="b"></path>
                <polygon points="155.12 44.51 156.55 46 149.45 52.83 153.72 57.27 152.37 58.57 146.67 52.64 " class="b"></polygon>
                <rect x="154.46" y="58.54" transform="matrix(0.8179 -0.5754 0.5754 0.8179 -5.0783 103.0949)" width="11.73" height="2.06" class="b"></rect>
                <polygon points="171.65 71.65 168.72 65.66 165.84 67.06 168.44 72.38 166.76 73.2 164.16 67.89 159.87 69.99 158.96 68.14 169.5 62.98 173.33 70.82 " class="b"></polygon>
                <polygon points="175.95 85.92 174.29 79.49 171.34 80.25 172.81 85.95 171.02 86.4 169.56 80.71 166.51 81.5 168.18 88 166.4 88.46 164.21 79.96 175.57 77.04 177.73 85.46 " class="b"></polygon>
                <rect x="30.4" y="107.82" transform="matrix(-0.9924 0.1229 -0.1229 -0.9924 80.0826 212.0635)" width="6.2" height="1.36" class="a"></rect>
                <polygon points="31.73 116.27 34.15 115.75 33.63 113.3 31.2 113.82 30.91 112.49 36.97 111.19 37.25 112.52 34.86 113.03 35.38 115.49 37.78 114.98 38.06 116.31 32.01 117.6 " class="a"></polygon>
                <path d="M34.11 124.38l1.45-1.9 -0.35-1.01 -1.88 0.64 -0.44-1.29 5.87-2 0.91 2.68c0.47 1.38 0.03 2.46-1.18 2.87l-0.02 0.01c-0.95 0.32-1.71 0.01-2.25-0.64l-1.61 2.15L34.11 124.38zM37.98 123.09c0.55-0.19 0.71-0.67 0.49-1.3l-0.44-1.28 -1.68 0.57 0.45 1.31c0.21 0.63 0.67 0.88 1.17 0.71L37.98 123.09z" class="a"></path>
                <polygon points="35.71 128.48 41.32 125.84 43.3 130.07 42.21 130.59 40.79 127.59 39.66 128.12 40.9 130.76 39.8 131.28 38.56 128.63 37.38 129.19 38.81 132.23 37.71 132.75 " class="a"></polygon>
                <path d="M42.53 140.94c-1.09-1.59-0.73-3.45 0.78-4.49l0.02-0.01c1.45-1 3.42-0.68 4.48 0.86 0.63 0.92 0.76 1.65 0.68 2.49l-1.34-0.12c0.06-0.62 0.01-1.1-0.4-1.69 -0.56-0.82-1.73-0.97-2.6-0.37l-0.01 0.01c-0.93 0.64-1.18 1.76-0.56 2.66 0.28 0.41 0.63 0.7 1.03 0.85l0.73-0.5 -0.78-1.13 0.97-0.67 1.53 2.22 -2.22 1.52C44.04 142.34 43.18 141.87 42.53 140.94" class="a"></path>
                <polygon points="46.06 145.5 50.73 141.44 53.8 144.96 52.89 145.76 50.71 143.25 49.76 144.08 51.68 146.28 50.76 147.08 48.85 144.87 47.87 145.73 50.07 148.26 49.16 149.06 " class="a"></polygon>
                <path d="M52.69 152.66c-0.68-0.64-1.15-1.53-1.24-2.52l1.25-0.15c0.09 0.72 0.32 1.33 0.83 1.81 0.41 0.38 0.8 0.45 1.05 0.19l0.01-0.01c0.24-0.25 0.2-0.52-0.37-1.43 -0.69-1.09-1.04-1.89-0.2-2.79l0.01-0.01c0.77-0.82 1.94-0.74 2.86 0.12 0.66 0.62 1.03 1.35 1.14 2.15l-1.22 0.27c-0.14-0.65-0.38-1.19-0.76-1.55 -0.38-0.36-0.74-0.37-0.95-0.15l-0.01 0.01c-0.28 0.3-0.18 0.57 0.42 1.51 0.69 1.1 0.9 1.91 0.16 2.7l-0.01 0.01C54.82 153.71 53.66 153.58 52.69 152.66" class="a"></path>
                <path d="M58.65 157.66c-1.33-1-1.59-2.35-0.49-3.81l2.12-2.83 1.09 0.82 -2.1 2.8c-0.6 0.81-0.51 1.53 0.15 2.03 0.67 0.5 1.37 0.4 1.96-0.39l2.13-2.84 1.09 0.82 -2.1 2.8C61.38 158.56 59.98 158.66 58.65 157.66" class="a"></path>
                <polygon points="67.4 163.2 66.76 158.29 64.8 161.7 63.63 161.03 66.72 155.66 67.81 156.29 68.43 161.04 70.33 157.73 71.5 158.4 68.41 163.77 " class="a"></polygon>
                <path d="M73.72 166.24l-2.22-0.94 2.4-5.71 2.23 0.94c1.79 0.75 2.52 2.5 1.84 4.11l-0.01 0.02C77.28 166.27 75.52 166.99 73.72 166.24M76.65 164.11c0.42-1.01 0.03-2.01-1-2.44l-0.97-0.41 -1.45 3.44 0.97 0.41c1.03 0.43 2.01 0.03 2.44-0.98L76.65 164.11z" class="a"></path>
                <polygon points="83.45 169.58 84.13 167.19 81.71 166.51 81.03 168.9 79.72 168.53 81.41 162.57 82.72 162.94 82.05 165.3 84.47 165.98 85.14 163.62 86.45 163.99 84.76 169.95 " class="a"></polygon>
                <polygon points="87.94 170.64 88.94 164.53 93.55 165.29 93.36 166.48 90.08 165.94 89.88 167.18 92.76 167.66 92.56 168.85 89.69 168.38 89.48 169.66 92.79 170.21 92.59 171.4 " class="a"></polygon>
                <rect x="92.99" y="167.94" transform="matrix(-0.0821 0.9966 -0.9966 -0.0821 272.0319 86.6982)" width="6.2" height="1.36" class="a"></rect>
                <polygon points="102.17 167.02 102.14 171.96 100.77 171.95 100.8 167.01 98.92 167 98.92 165.74 104.06 165.77 104.05 167.03 " class="a"></polygon>
                <rect x="107.07" y="167.68" transform="matrix(0.1198 0.9928 -0.9928 0.1198 264.1101 38.8131)" width="6.19" height="1.36" class="a"></rect>
                <polygon points="118.99 169.93 118.13 165.98 116.99 168.94 116.95 168.94 114.71 166.75 115.56 170.68 114.26 170.96 112.94 164.91 114.38 164.59 116.53 166.81 117.56 163.9 118.99 163.59 120.31 169.64 " class="a"></polygon>
                <polygon points="131.57 165.59 129.99 161.87 129.42 164.98 129.39 165 126.78 163.26 128.34 166.96 127.12 167.48 124.7 161.78 126.05 161.2 128.57 162.98 129.04 159.93 130.4 159.36 132.82 165.06 " class="a"></polygon>
                <rect x="131.56" y="159.9" transform="matrix(0.4765 0.8792 -0.8792 0.4765 211.6717 -34.3192)" width="6.19" height="1.36" class="a"></rect>
                <polygon points="138.88 155.9 141.57 160.04 140.42 160.79 137.73 156.64 136.15 157.67 135.47 156.61 139.78 153.82 140.46 154.87 " class="a"></polygon>
                <polygon points="144.4 151.83 147.49 155.68 146.43 156.53 143.34 152.69 141.87 153.87 141.08 152.89 145.08 149.67 145.87 150.65 " class="a"></polygon>
                <polygon points="150.94 152.71 146.58 148.31 149.9 145.02 150.75 145.88 148.39 148.22 149.28 149.11 151.35 147.06 152.2 147.92 150.13 149.97 151.04 150.9 153.44 148.53 154.29 149.39 " class="a"></polygon>
                <polygon points="156.19 147.27 151.41 143.33 152.28 142.28 156.1 145.43 158.07 143.05 159.03 143.84 " class="a"></polygon>
                <path d="M160.37 138.7l-0.57 0.86 1.55 1.03 -0.76 1.13 -5.15-3.43 1.4-2.1c0.82-1.23 2.04-1.49 3.1-0.79l0.02 0.01C161.14 136.2 161.14 137.54 160.37 138.7M159.19 136.56c-0.51-0.34-1.02-0.17-1.39 0.4l-0.58 0.88 1.58 1.05 0.6-0.9c0.38-0.57 0.26-1.12-0.18-1.42L159.19 136.56z" class="a"></path>
                <path d="M165.98 133c-0.76 1.48-2.05 1.96-3.67 1.12l-3.14-1.62 0.63-1.21 3.11 1.61c0.9 0.46 1.59 0.25 1.97-0.48 0.38-0.74 0.16-1.42-0.71-1.87l-3.15-1.63 0.63-1.21 3.11 1.6C166.41 130.16 166.74 131.52 165.98 133" class="a"></path>
                <polygon points="169.99 123.44 165.25 124.89 168.95 126.26 168.48 127.52 162.67 125.37 163.1 124.19 167.69 122.79 164.11 121.47 164.58 120.2 170.39 122.35 " class="a"></polygon>
                <polygon points="172.29 115.21 169.28 116.47 169.84 117.34 171.68 117.78 171.36 119.1 165.34 117.66 165.66 116.34 168.29 116.96 166.24 113.89 166.62 112.29 168.59 115.35 172.67 113.62 " class="a"></polygon>
                <polygon points="168.5 107.8 173.4 108.41 173.23 109.77 168.33 109.15 168.1 111.02 166.85 110.86 167.49 105.77 168.74 105.93 " class="a"></polygon>
            </svg>