<?xml version="1.0" standalone="no"?>
<!DOCTYPE svg PUBLIC "-//W3C//DTD SVG 20010904//EN"
 "http://www.w3.org/TR/2001/REC-SVG-20010904/DTD/svg10.dtd">
<svg version="1.0" xmlns="http://www.w3.org/2000/svg"
 width="300.000000pt" height="300.000000pt" viewBox="0 0 300.000000 300.000000"
 preserveAspectRatio="xMidYMid meet">
<metadata>
Created by potrace 1.11, written by Peter Selinger 2001-2013
</metadata>
<g transform="translate(0.000000,300.000000) scale(0.100000,-0.100000)"
fill="#000000" stroke="none">
<path d="M1260 2985 c-229 -39 -445 -129 -634 -262 -104 -74 -275 -245 -349
-350 -115 -162 -208 -374 -252 -573 -22 -100 -31 -392 -16 -502 49 -343 207
-650 459 -889 197 -188 414 -307 685 -375 140 -36 454 -46 605 -19 548 97
1001 490 1172 1015 61 188 73 277 67 512 -5 226 -22 319 -92 500 -191 495
-641 858 -1170 943 -110 18 -370 18 -475 0z m380 -140 c0 -12 -13 -15 -60 -15
l-60 0 0 -30 c0 -29 1 -30 50 -30 38 0 50 -4 50 -15 0 -11 -12 -15 -49 -15
l-48 0 -7 -40 c-4 -26 -11 -40 -21 -40 -17 0 -19 37 -9 139 l7 61 73 0 c59 0
74 -3 74 -15z m-415 -110 c31 -107 32 -109 11 -113 -10 -2 -18 10 -26 38 -10
36 -14 41 -33 36 -12 -4 -35 -9 -50 -13 -23 -5 -27 -10 -23 -27 19 -65 19 -78
1 -75 -24 5 -82 189 -63 200 17 11 26 3 33 -31 9 -39 17 -43 65 -30 43 12 49
26 31 74 -9 23 -4 32 20 35 3 1 18 -42 34 -94z m681 68 c34 -22 48 -83 30
-126 -26 -63 -92 -85 -156 -52 -37 19 -50 43 -50 93 0 43 28 87 64 103 27 11
82 2 112 -18z m292 -126 c12 -11 22 -30 22 -42 0 -33 -28 -65 -57 -65 -25 0
-26 -1 -20 -50 6 -48 5 -50 -13 -40 -14 7 -20 21 -20 43 0 36 -24 77 -44 77
-8 0 -19 -13 -26 -30 -13 -32 -18 -34 -37 -22 -8 5 3 34 38 100 l50 92 42 -21
c23 -12 52 -31 65 -42z m-1282 18 c-10 -8 -24 -16 -30 -18 -7 -3 6 -36 32 -86
36 -69 41 -82 27 -87 -19 -8 -13 -15 -60 71 -21 39 -39 71 -41 73 -1 2 -15 -3
-32 -12 -28 -14 -42 -13 -42 5 0 5 33 26 72 48 50 28 76 37 83 30 7 -7 4 -15
-9 -24z m-236 -225 c24 -30 46 -58 50 -62 3 -4 25 8 49 28 32 25 47 31 55 23
8 -8 -3 -23 -39 -55 -27 -24 -55 -44 -62 -44 -6 0 -39 34 -73 75 -52 63 -60
78 -49 91 7 8 15 11 19 7 3 -4 26 -33 50 -63z m1085 30 c148 -40 321 -133 428
-231 l48 -44 -100 -88 c-241 -211 -434 -332 -581 -363 -184 -39 -355 32 -575
236 -57 53 -58 54 -21 10 159 -190 200 -252 235 -357 26 -77 28 -196 5 -274
-39 -134 -148 -302 -329 -514 l-100 -115 -44 47 c-98 107 -191 280 -233 433
-20 74 -23 108 -23 260 1 186 8 230 61 371 116 308 399 558 719 632 109 26
111 26 275 22 120 -2 173 -8 235 -25z m664 -96 l-62 -63 36 -45 c54 -65 27
-71 -36 -7 l-52 51 75 75 c58 59 77 72 87 63 11 -9 2 -23 -48 -74z m-1870 -70
c113 -31 115 -32 101 -49 -9 -10 -18 -11 -37 -4 -14 5 -27 8 -29 7 -1 -2 -16
-20 -33 -41 -25 -33 -28 -42 -19 -62 6 -13 8 -32 4 -42 -5 -13 -21 9 -62 86
-52 98 -60 131 -33 131 6 0 55 -12 108 -26z m2094 -74 c-31 -29 -168 -118
-175 -114 -20 12 -2 33 74 86 64 46 84 55 95 46 8 -6 10 -14 6 -18z m-334
-127 c275 -353 288 -855 32 -1226 -61 -88 -181 -207 -270 -267 -319 -215 -739
-234 -1078 -48 -40 21 -105 64 -144 95 l-72 57 69 64 c231 215 443 348 608
380 66 13 90 14 150 4 116 -20 251 -95 376 -207 84 -76 95 -80 35 -15 -299
330 -310 560 -42 923 70 96 258 316 269 317 4 0 34 -35 67 -77z m-1979 21 c0
-3 -12 -27 -26 -55 -14 -28 -24 -52 -22 -54 2 -1 13 -8 25 -14 21 -11 25 -8
45 34 12 25 28 45 35 45 18 0 16 -14 -8 -61 -11 -23 -19 -42 -17 -44 2 -1 13
-7 25 -14 21 -11 24 -8 50 43 20 40 32 53 41 47 10 -6 6 -22 -19 -74 -19 -37
-37 -67 -41 -67 -8 0 -169 78 -177 86 -3 3 10 35 29 73 22 46 38 67 47 64 7
-3 13 -7 13 -9z m2420 -70 c28 -61 31 -84 11 -84 -4 0 -18 23 -31 50 -25 53
-30 56 -61 40 -18 -10 -18 -12 6 -59 20 -41 22 -50 9 -55 -10 -4 -21 8 -36 39
-25 50 -27 51 -69 30 -29 -15 -49 -13 -49 5 0 9 165 98 183 99 4 1 21 -29 37
-65z m-2447 -215 c94 -23 114 -46 35 -41 l-45 3 -12 -45 c-6 -25 -11 -47 -11
-50 0 -2 18 -7 40 -11 30 -5 40 -11 40 -26 0 -23 3 -23 -74 -3 -137 34 -135
34 -129 50 4 11 15 13 48 9 l42 -7 11 43 c13 52 11 56 -33 65 -26 5 -35 11
-35 26 0 14 5 18 18 14 9 -3 57 -15 105 -27z m2553 -91 c5 -30 3 -38 -8 -38
-10 0 -19 19 -27 55 -9 40 -17 55 -29 55 -34 0 -42 -14 -32 -50 14 -48 12 -70
-4 -70 -9 0 -17 15 -21 38 -9 54 -18 64 -47 57 l-26 -7 15 -55 c12 -46 12 -57
1 -64 -15 -9 -15 -9 -38 81 l-17 65 101 26 101 26 13 -41 c7 -23 15 -58 18
-78z m-1311 -147 c17 -20 17 -20 47 2 27 20 31 20 56 6 53 -29 36 -92 -46
-172 l-39 -38 -43 48 c-39 44 -70 98 -70 123 0 17 39 50 58 50 11 0 27 -9 37
-19z m-1122 -219 c14 -220 115 -456 265 -622 l50 -55 -70 -72 c-71 -72 -71
-72 -54 -97 10 -16 12 -26 5 -26 -6 0 -13 9 -16 20 -6 24 -21 26 -30 3 -4 -10
3 -24 21 -40 22 -19 31 -21 48 -12 20 11 21 26 3 74 -5 16 -3 15 13 -5 20 -23
21 -24 28 -6 5 13 1 24 -14 36 -21 17 -20 17 28 65 l48 47 55 -45 c86 -70 142
-106 230 -147 316 -148 654 -140 964 25 106 56 179 113 273 211 177 186 264
386 295 677 l6 57 190 0 189 0 0 -78 c0 -241 -107 -550 -269 -776 -219 -307
-570 -527 -940 -590 -120 -20 -365 -21 -486 -1 -569 92 -1033 513 -1178 1070
-30 115 -47 230 -47 316 l0 59 194 0 193 0 6 -88z"/>
<path d="M1813 2789 c-55 -20 -67 -101 -20 -134 65 -45 145 33 107 105 -13 24
-59 39 -87 29z"/>
<path d="M2091 2663 c-11 -24 -10 -29 9 -45 29 -23 67 -23 79 0 11 21 6 32
-29 55 -34 23 -45 21 -59 -10z"/>
<path d="M1411 2212 c-19 -9 -48 -34 -65 -55 -28 -35 -31 -45 -31 -112 0 -67
3 -76 31 -112 44 -54 84 -75 148 -75 70 -1 122 25 161 81 26 36 30 52 30 105
0 51 -5 70 -28 104 -15 23 -45 51 -67 62 -50 25 -132 26 -179 2z"/>
<path d="M493 2281 l22 -41 22 27 c25 30 21 36 -34 48 l-32 6 22 -40z"/>
<path d="M2687 1373 c-4 -3 -7 -26 -7 -50 0 -32 4 -43 15 -43 8 0 15 7 15 15
0 12 9 13 45 8 36 -5 45 -3 45 10 0 18 -21 27 -60 27 -23 0 -27 3 -23 20 5 20
-15 29 -30 13z"/>
<path d="M235 1341 c-26 -4 -40 -11 -40 -21 0 -12 10 -14 45 -12 60 4 82 11
77 25 -4 14 -28 17 -82 8z"/>
<path d="M253 1268 c-48 -10 -60 -38 -18 -38 31 0 34 -29 5 -37 -24 -6 -27
-33 -4 -33 8 0 35 5 60 11 48 12 61 39 19 39 -30 0 -34 26 -6 35 12 4 18 12
14 21 -6 16 -10 16 -70 2z"/>
<path d="M2670 1238 c0 -15 5 -30 10 -33 18 -11 10 -26 -10 -20 -15 5 -20 2
-20 -13 0 -15 9 -21 38 -26 20 -3 47 -9 60 -12 30 -9 30 24 0 35 -22 8 -21 8
7 22 17 8 31 22 33 32 3 17 2 17 -35 2 -38 -16 -38 -16 -60 12 l-23 28 0 -27z"/>
<path d="M287 1122 c-49 -16 -57 -35 -19 -40 20 -3 20 -5 7 -25 -18 -28 -5
-56 15 -33 7 10 21 14 35 10 35 -9 56 27 42 72 -12 38 -13 38 -80 16z m53 -37
c0 -8 -4 -15 -9 -15 -5 0 -11 7 -15 15 -3 9 0 15 9 15 8 0 15 -7 15 -15z"/>
<path d="M2635 1112 c-13 -13 -3 -30 23 -37 27 -7 27 -8 -13 -19 -59 -17 -56
-39 6 -59 29 -9 56 -14 61 -11 16 10 8 22 -19 32 l-28 9 37 12 c56 19 54 36
-7 59 -30 10 -57 17 -60 14z"/>
<path d="M335 988 c-22 -11 -41 -22 -43 -23 -2 -2 6 -22 18 -45 16 -31 25 -39
33 -31 7 7 7 17 -1 36 -6 14 -7 25 -2 25 5 0 12 -9 15 -20 3 -11 13 -20 21
-20 17 0 18 14 4 41 -6 10 -7 19 -2 19 5 0 14 -11 20 -25 7 -16 17 -23 26 -19
13 5 13 11 -4 45 -23 45 -30 46 -85 17z"/>
<path d="M2577 973 c-14 -13 -6 -24 28 -40 34 -16 45 -36 25 -48 -5 -3 -23 1
-39 10 -37 19 -51 19 -51 2 0 -17 71 -50 96 -45 10 2 24 14 31 27 15 31 3 55
-40 81 -35 22 -40 23 -50 13z"/>
<path d="M2495 824 c-14 -15 -25 -31 -25 -35 0 -4 21 -22 46 -40 32 -22 49
-28 56 -21 8 8 8 15 -1 26 -9 10 -9 20 -2 34 7 14 6 25 -5 40 -20 29 -40 28
-69 -4z m45 -29 c0 -8 -4 -15 -9 -15 -13 0 -22 16 -14 24 11 11 23 6 23 -9z"/>
<path d="M420 810 c-24 -24 -25 -32 -5 -69 19 -38 44 -46 68 -23 15 16 17 23
8 40 -13 25 -43 19 -34 -6 5 -13 3 -14 -6 -6 -18 17 -9 49 15 52 14 2 24 -5
32 -23 13 -29 32 -33 32 -7 0 55 -70 82 -110 42z"/>
<path d="M521 691 l-44 -38 30 -33 c19 -21 34 -30 42 -26 9 6 7 14 -8 30 -12
12 -18 26 -14 30 4 4 14 -2 23 -13 10 -15 19 -18 30 -11 12 8 12 11 -3 28 -26
29 -20 38 8 12 38 -36 50 -12 14 28 -16 17 -30 32 -31 32 -2 0 -23 -18 -47
-39z"/>
<path d="M2400 697 c0 -7 19 -27 43 -45 l42 -33 28 32 c22 24 26 34 17 43 -9
8 -16 5 -27 -12 l-16 -22 -33 25 c-36 28 -54 32 -54 12z"/>
<path d="M2335 630 l-29 -30 42 -43 42 -42 31 32 c37 36 31 68 -5 34 -27 -25
-43 -16 -19 11 11 13 13 22 6 29 -7 7 -14 5 -23 -6 -7 -8 -17 -15 -23 -15 -6
0 -1 10 11 23 20 21 21 37 2 37 -3 0 -19 -14 -35 -30z"/>
<path d="M2241 550 c-34 -29 -35 -56 -1 -45 13 4 26 -4 44 -27 19 -25 28 -30
37 -21 9 9 6 19 -15 44 -20 24 -24 34 -15 45 10 13 5 34 -9 34 -4 -1 -22 -14
-41 -30z"/>
<path d="M716 526 c-43 -57 -28 -106 33 -106 28 0 78 67 62 83 -8 8 -18 3 -40
-23 -24 -28 -32 -33 -42 -23 -10 10 -9 19 9 43 24 32 27 46 13 54 -5 3 -21
-10 -35 -28z"/>
<path d="M2143 479 c-40 -25 -45 -52 -9 -43 18 4 26 1 30 -14 4 -11 15 -27 25
-36 29 -27 36 -1 10 40 -16 26 -19 38 -10 47 31 31 0 36 -46 6z"/>
<path d="M827 421 c-15 -27 -27 -51 -27 -55 0 -15 29 -4 43 17 l16 22 0 -27
c1 -35 11 -58 25 -58 18 0 69 97 55 106 -7 4 -20 -2 -31 -16 l-18 -22 0 22 c0
25 -17 60 -29 60 -4 0 -20 -22 -34 -49z"/>
<path d="M2063 434 c-9 -4 -4 -21 15 -60 27 -55 38 -65 48 -40 4 11 -42 109
-49 105 -1 0 -7 -3 -14 -5z"/>
<path d="M964 347 l-22 -52 22 -12 c51 -29 106 -4 106 50 0 20 -9 33 -32 47
-18 11 -37 20 -43 20 -5 0 -20 -24 -31 -53z m65 -1 c15 -18 3 -46 -20 -46 -19
0 -24 16 -13 44 8 20 18 20 33 2z"/>
<path d="M1984 375 c-7 -29 -8 -29 -34 -13 -35 22 -43 -2 -19 -60 12 -29 25
-52 30 -52 15 0 19 19 9 46 -10 24 -9 26 6 13 14 -11 18 -11 29 5 13 16 14 16
20 -3 7 -23 35 -29 35 -8 -1 26 -40 97 -54 97 -9 0 -18 -11 -22 -25z"/>
<path d="M1111 308 c-7 -24 -15 -51 -17 -60 -4 -13 0 -18 15 -18 12 0 21 7 21
15 0 8 9 15 20 15 17 0 19 -4 14 -26 -5 -21 -3 -25 11 -22 19 3 49 82 40 106
-7 18 -23 14 -30 -8 -9 -29 -33 -25 -37 7 -5 42 -24 37 -37 -9z"/>
<path d="M1782 318 c-7 -7 -12 -18 -12 -25 0 -17 -15 -16 -30 2 -18 22 -40 18
-40 -7 0 -43 21 -98 36 -98 12 0 14 7 9 33 l-7 32 21 -19 c19 -17 21 -17 21
-3 0 10 5 17 10 17 6 0 10 -9 10 -20 0 -13 7 -20 20 -20 11 0 20 1 20 3 -8 46
-29 112 -36 114 -5 2 -15 -2 -22 -9z"/>
<path d="M1256 293 c-2 -10 -7 -37 -11 -59 l-6 -41 41 -7 c63 -10 87 15 28 29
l-33 8 30 6 c35 7 40 25 8 29 -13 2 -23 7 -23 11 0 4 14 6 30 3 42 -6 41 23
-1 32 -48 9 -57 8 -63 -11z"/>
<path d="M1630 263 c0 -54 10 -83 28 -83 12 0 14 9 8 46 -3 26 -6 53 -6 60 0
8 -7 14 -15 14 -11 0 -15 -11 -15 -37z"/>
<path d="M1377 238 c-7 -53 2 -76 22 -64 17 11 14 116 -3 116 -9 0 -15 -18
-19 -52z"/>
<path d="M1440 275 c0 -8 6 -15 14 -15 10 0 16 -14 18 -42 2 -31 8 -44 21 -46
14 -3 17 4 17 42 0 34 4 46 15 46 8 0 15 7 15 15 0 11 -12 15 -50 15 -38 0
-50 -4 -50 -15z"/>
</g>
</svg>
